<?xml version="1.0" encoding="UTF-8" standalone="no"?>
<!-- Uploaded to: SVG Repo, www.svgrepo.com, Generator: SVG Repo Mixer Tools -->

<svg
   height="800px"
   width="800px"
   version="1.1"
   id="Layer_1"
   viewBox="0 0 512 512"
   xml:space="preserve"
   sodipodi:docname="candle-dark.svg"
   inkscape:version="1.1.2 (0a00cf5339, 2022-02-04)"
   xmlns:inkscape="http://www.inkscape.org/namespaces/inkscape"
   xmlns:sodipodi="http://sodipodi.sourceforge.net/DTD/sodipodi-0.dtd"
   xmlns="http://www.w3.org/2000/svg"
   xmlns:svg="http://www.w3.org/2000/svg"><defs
   id="defs27" /><sodipodi:namedview
   id="namedview25"
   pagecolor="#ffffff"
   bordercolor="#666666"
   borderopacity="1.0"
   inkscape:pageshadow="2"
   inkscape:pageopacity="0.0"
   inkscape:pagecheckerboard="0"
   showgrid="false"
   inkscape:zoom="0.09656186"
   inkscape:cx="5079.6453"
   inkscape:cy="2024.6089"
   inkscape:window-width="1920"
   inkscape:window-height="990"
   inkscape:window-x="0"
   inkscape:window-y="0"
   inkscape:window-maximized="1"
   inkscape:current-layer="Layer_1" />
<path
   style="fill:#995C0D;"
   d="M303.767,162.142c-4.103,0-7.43-3.326-7.43-7.43v-30.394c0-4.104,3.327-7.43,7.43-7.43  s7.43,3.326,7.43,7.43v30.394C311.196,158.817,307.869,162.142,303.767,162.142z"
   id="path2" />
<path
   style="fill:#F7B239;"
   d="M350.371,154.713h-46.604h-46.591c-6.43,0-12.266,2.607-16.48,6.822  c-4.215,4.215-6.822,10.05-6.822,16.48c0,8.416,4.458,15.791,11.145,19.885l0,0v232.373h117.51V197.899l0,0  c1.567-0.959,3.026-2.107,4.323-3.404c4.215-4.215,6.822-10.05,6.822-16.48C373.673,165.141,363.245,154.713,350.371,154.713z"
   id="path4" />
<path
   style="fill:#E09B2D;"
   d="M350.371,201.317h-45.464c-4.444,0-8.618-1.243-12.158-3.418  c-6.687-4.093-11.145-11.469-11.145-19.885c0-6.43,2.607-12.266,6.822-16.48c4.215-4.215,10.05-6.822,16.48-6.822h-1.14h-46.591  c-6.43,0-12.266,2.607-16.48,6.822c-4.215,4.215-6.822,10.05-6.822,16.48c0,8.416,4.458,15.791,11.145,19.885l0,0v232.374h26.116  V223.836h91.394v-25.936C358.989,200.074,354.829,201.317,350.371,201.317z"
   id="path6" />
<g
   id="g14">
	<path
   style="fill:#B27214;"
   d="M330.108,375.564c-3.357,0-6.079,2.722-6.079,6.079v48.631c0,3.357,2.722,6.079,6.079,6.079   c3.357,0,6.079-2.722,6.079-6.079v-48.631C336.187,378.285,333.466,375.564,330.108,375.564z"
   id="path8" />
	<path
   style="fill:#B27214;"
   d="M306.32,392.45c-3.357,0-6.079,2.722-6.079,6.079v48.631c0,3.357,2.722,6.079,6.079,6.079   s6.079-2.722,6.079-6.079v-48.631C312.399,395.171,309.677,392.45,306.32,392.45z"
   id="path10" />
	<path
   style="fill:#B27214;"
   d="M281.478,353.275c-3.357,0-6.079,2.722-6.079,6.079v70.92c0,3.357,2.722,6.079,6.079,6.079   c3.357,0,6.079-2.722,6.079-6.079v-70.92C287.557,355.996,284.836,353.275,281.478,353.275z"
   id="path12" />
</g>
<polygon
   style="fill:#2BA5F7;"
   points="480.052,424.869 453.711,511.999 157.889,511.999 131.547,424.869 245.018,424.869   281.478,424.869 330.108,424.869 362.529,424.869 "
   id="polygon16" />
<path
   style="fill:#2197D8;"
   d="M200.053,512l-12.671-87.13h-32.42l-31.071-53.665c-8.768-15.155-24.456-24.341-41.965-24.571  c-17.538-0.254-33.458,8.545-42.631,23.482c-4.808,7.831-7.346,16.713-7.346,25.682c0,27.203,22.124,49.334,49.319,49.334h56.406  L157.889,512H200.053z M52.21,395.799c0-5.302,1.464-10.379,4.351-15.082c5.33-8.678,14.542-13.823,24.699-13.823  c0.132,0,0.263,0,0.397,0.003c10.303,0.136,19.535,5.541,24.695,14.461l25.195,43.514H81.266  C63.318,424.87,52.21,409.78,52.21,395.799z"
   id="path18" />


<path
   style="fill:#2197d8;stroke:none;stroke-width:1.26984;fill-opacity:1"
   d="m 303.68299,734.91989 c -5.13309,-35.79324 -9.62361,-66.36433 -9.97893,-67.93576 l -0.64605,-2.85715 h 228.15974 c 216.71621,0 228.12448,0.11146 227.45684,2.22223 -2.93674,9.28457 -40.10316,132.60365 -40.10316,133.06327 0,0.32314 -89,0.58719 -197.77778,0.58678 l -197.77778,-7.5e-4 z"
   id="path283"
   transform="scale(0.64)" /><path
   style="fill:#e09b2d;fill-opacity:1;stroke-width:1.02203"
   d="M 383.26079,486.38632 V 309.47596 l -5.07889,-4.56637 c -3.21645,-2.89186 -6.3084,-7.06383 -8.43174,-11.37695 -2.99394,-6.08155 -3.35284,-7.74281 -3.35284,-15.51932 0,-7.27396 0.44371,-9.65503 2.69321,-14.45255 3.78712,-8.07677 9.19374,-13.62004 17.06611,-17.49744 l 6.76399,-3.33149 36.81775,-0.30333 36.81776,-0.30332 -6.28268,3.1412 c -7.54446,3.77207 -13.88817,10.36488 -17.54893,18.23803 -2.25183,4.84299 -2.69537,7.23378 -2.68771,14.48741 0.008,7.36204 0.45251,9.65735 2.91536,15.04669 3.41204,7.46641 11.38184,15.54125 18.70767,18.95423 4.83247,2.25137 5.48247,2.2811 49.86556,2.2811 44.13664,0 45.05915,-0.0415 49.8239,-2.24209 l 4.85464,-2.2421 v 19.87209 19.87209 h -71.54202 -71.54201 v 156.88142 156.88142 h -19.92956 -19.92957 z"
   id="path17546"
   transform="scale(0.64)" /><path
   style="fill:#e09b2d;fill-opacity:1;stroke-width:1.02203"
   d="M 424.14195,506.92628 V 350.55587 h 71.031 71.031 v 156.37041 156.3704 H 545.76337 525.3228 v -35.63164 -35.63163 l -2.69444,-2.69445 c -3.87222,-3.87221 -9.69562,-3.74799 -13.73664,0.29304 l -2.98747,2.98746 v 35.33861 35.33861 h -8.68725 -8.68724 v -21.8952 -21.89521 l -2.64592,-3.14449 c -2.22572,-2.64512 -3.36928,-3.14451 -7.20066,-3.14451 -3.47319,0 -5.15042,0.59569 -7.06335,2.50862 l -2.50862,2.50861 v 22.5311 22.53108 h -9.70927 -9.70927 v -52.71309 -52.71311 l -2.98747,-2.98746 c -4.04102,-4.04103 -9.86442,-4.16525 -13.73664,-0.29304 l -2.69444,2.69445 v 53.00612 53.00613 h -3.06609 -3.06608 z"
   id="path17585"
   transform="scale(0.64)" /><path
   style="fill:#e09b2d;fill-opacity:1;stroke-width:1.02203"
   d="m 463.41271,311.68177 c -14.33142,-5.57229 -23.89086,-20.97214 -22.64591,-36.48159 1.03472,-12.89047 8.967,-24.1013 21.06756,-29.77513 l 5.74381,-2.69321 h 44.45825 44.45825 l 5.66023,2.7824 c 22.79712,11.20643 28.07949,39.75317 10.65798,57.59737 -10.14314,10.38922 -8.51075,10.10611 -59.75443,10.36368 -42.12284,0.21173 -44.73075,0.11751 -49.64574,-1.79352 z"
   id="path17624"
   transform="scale(0.64)" /></svg>
