<?xml version="1.0" encoding="UTF-8" standalone="no"?>
<!-- Uploaded to: SVG Repo, www.svgrepo.com, Generator: SVG Repo Mixer Tools -->

<svg
   height="800px"
   width="800px"
   version="1.1"
   id="Layer_1"
   viewBox="0 0 503.467 503.467"
   xml:space="preserve"
   sodipodi:docname="torch-off.svg"
   inkscape:version="1.1.2 (0a00cf5339, 2022-02-04)"
   xmlns:inkscape="http://www.inkscape.org/namespaces/inkscape"
   xmlns:sodipodi="http://sodipodi.sourceforge.net/DTD/sodipodi-0.dtd"
   xmlns="http://www.w3.org/2000/svg"
   xmlns:svg="http://www.w3.org/2000/svg"><defs
   id="defs27"><inkscape:path-effect
     effect="skeletal"
     id="path-effect155466"
     is_visible="true"
     lpeversion="1"
     pattern="M 0,11.874222 C 0,5.3196513 5.3196513,0 11.874222,0 c 6.55457,0 11.874221,5.3196513 11.874221,11.874222 0,6.55457 -5.319651,11.874221 -11.874221,11.874221 C 5.3196513,23.748443 0,18.428792 0,11.874222 Z"
     copytype="single_stretched"
     prop_scale="1"
     scale_y_rel="false"
     spacing="0"
     normal_offset="0"
     tang_offset="0"
     prop_units="false"
     vertical_pattern="false"
     hide_knot="false"
     fuse_tolerance="0" /><inkscape:path-effect
     effect="skeletal"
     id="path-effect155462"
     is_visible="true"
     lpeversion="1"
     pattern="M 0,11.874222 C 0,5.3196513 5.3196513,0 11.874222,0 c 6.55457,0 11.874221,5.3196513 11.874221,11.874222 0,6.55457 -5.319651,11.874221 -11.874221,11.874221 C 5.3196513,23.748443 0,18.428792 0,11.874222 Z"
     copytype="single_stretched"
     prop_scale="1"
     scale_y_rel="false"
     spacing="0"
     normal_offset="0"
     tang_offset="0"
     prop_units="false"
     vertical_pattern="false"
     hide_knot="false"
     fuse_tolerance="0" /><inkscape:path-effect
     effect="powerstroke"
     id="path-effect155458"
     is_visible="true"
     lpeversion="1"
     offset_points="24,11.8742"
     not_jump="false"
     sort_points="true"
     interpolator_type="CubicBezierJohan"
     interpolator_beta="0.2"
     start_linecap_type="zerowidth"
     linejoin_type="extrp_arc"
     miter_limit="4"
     scale_width="1"
     end_linecap_type="zerowidth" /><inkscape:path-effect
     effect="powerstroke"
     id="path-effect155454"
     is_visible="true"
     lpeversion="1"
     offset_points="22,11.8742"
     not_jump="false"
     sort_points="true"
     interpolator_type="CubicBezierJohan"
     interpolator_beta="0.2"
     start_linecap_type="zerowidth"
     linejoin_type="extrp_arc"
     miter_limit="4"
     scale_width="1"
     end_linecap_type="zerowidth" /><inkscape:path-effect
     effect="skeletal"
     id="path-effect155450"
     is_visible="true"
     lpeversion="1"
     pattern="M 0,11.874222 C 0,5.3196513 5.3196513,0 11.874222,0 c 6.55457,0 11.874221,5.3196513 11.874221,11.874222 0,6.55457 -5.319651,11.874221 -11.874221,11.874221 C 5.3196513,23.748443 0,18.428792 0,11.874222 Z"
     copytype="single_stretched"
     prop_scale="1"
     scale_y_rel="false"
     spacing="0"
     normal_offset="0"
     tang_offset="0"
     prop_units="false"
     vertical_pattern="false"
     hide_knot="false"
     fuse_tolerance="0" /><inkscape:path-effect
     effect="skeletal"
     id="path-effect155446"
     is_visible="true"
     lpeversion="1"
     pattern="M 0,11.874222 C 0,5.3196513 5.3196513,0 11.874222,0 c 6.55457,0 11.874221,5.3196513 11.874221,11.874222 0,6.55457 -5.319651,11.874221 -11.874221,11.874221 C 5.3196513,23.748443 0,18.428792 0,11.874222 Z"
     copytype="single_stretched"
     prop_scale="1"
     scale_y_rel="false"
     spacing="0"
     normal_offset="0"
     tang_offset="0"
     prop_units="false"
     vertical_pattern="false"
     hide_knot="false"
     fuse_tolerance="0" /><inkscape:path-effect
     effect="powerstroke"
     id="path-effect155442"
     is_visible="true"
     lpeversion="1"
     offset_points="0,11.8742"
     not_jump="false"
     sort_points="true"
     interpolator_type="CubicBezierJohan"
     interpolator_beta="0.2"
     start_linecap_type="zerowidth"
     linejoin_type="extrp_arc"
     miter_limit="4"
     scale_width="1"
     end_linecap_type="zerowidth" /><inkscape:path-effect
     effect="powerstroke"
     id="path-effect155438"
     is_visible="true"
     lpeversion="1"
     offset_points="0,11.8742"
     not_jump="false"
     sort_points="true"
     interpolator_type="CubicBezierJohan"
     interpolator_beta="0.2"
     start_linecap_type="zerowidth"
     linejoin_type="extrp_arc"
     miter_limit="4"
     scale_width="1"
     end_linecap_type="zerowidth" /><inkscape:path-effect
     effect="powerstroke"
     id="path-effect155434"
     is_visible="true"
     lpeversion="1"
     offset_points="0,11.8742"
     not_jump="false"
     sort_points="true"
     interpolator_type="CubicBezierJohan"
     interpolator_beta="0.2"
     start_linecap_type="zerowidth"
     linejoin_type="extrp_arc"
     miter_limit="4"
     scale_width="1"
     end_linecap_type="zerowidth" /><inkscape:path-effect
     effect="powerstroke"
     id="path-effect155430"
     is_visible="true"
     lpeversion="1"
     offset_points="0,11.8742"
     not_jump="false"
     sort_points="true"
     interpolator_type="CubicBezierJohan"
     interpolator_beta="0.2"
     start_linecap_type="zerowidth"
     linejoin_type="extrp_arc"
     miter_limit="4"
     scale_width="1"
     end_linecap_type="zerowidth" /><inkscape:path-effect
     effect="powerstroke"
     id="path-effect155426"
     is_visible="true"
     lpeversion="1"
     offset_points="0,11.8742"
     not_jump="false"
     sort_points="true"
     interpolator_type="CubicBezierJohan"
     interpolator_beta="0.2"
     start_linecap_type="zerowidth"
     linejoin_type="extrp_arc"
     miter_limit="4"
     scale_width="1"
     end_linecap_type="zerowidth" /><inkscape:path-effect
     effect="powerstroke"
     id="path-effect155422"
     is_visible="true"
     lpeversion="1"
     offset_points="0,11.8742"
     not_jump="false"
     sort_points="true"
     interpolator_type="CubicBezierJohan"
     interpolator_beta="0.2"
     start_linecap_type="zerowidth"
     linejoin_type="extrp_arc"
     miter_limit="4"
     scale_width="1"
     end_linecap_type="zerowidth" /><inkscape:path-effect
     effect="powerstroke"
     id="path-effect155418"
     is_visible="true"
     lpeversion="1"
     offset_points="0,11.8742"
     not_jump="false"
     sort_points="true"
     interpolator_type="CubicBezierJohan"
     interpolator_beta="0.2"
     start_linecap_type="zerowidth"
     linejoin_type="extrp_arc"
     miter_limit="4"
     scale_width="1"
     end_linecap_type="zerowidth" /><inkscape:path-effect
     effect="powerstroke"
     id="path-effect155414"
     is_visible="true"
     lpeversion="1"
     offset_points="0,11.8742"
     not_jump="false"
     sort_points="true"
     interpolator_type="CubicBezierJohan"
     interpolator_beta="0.2"
     start_linecap_type="zerowidth"
     linejoin_type="extrp_arc"
     miter_limit="4"
     scale_width="1"
     end_linecap_type="zerowidth" /><inkscape:path-effect
     effect="powerstroke"
     id="path-effect155410"
     is_visible="true"
     lpeversion="1"
     offset_points="0,11.8742"
     not_jump="false"
     sort_points="true"
     interpolator_type="CubicBezierJohan"
     interpolator_beta="0.2"
     start_linecap_type="zerowidth"
     linejoin_type="extrp_arc"
     miter_limit="4"
     scale_width="1"
     end_linecap_type="zerowidth" /><inkscape:path-effect
     effect="powerstroke"
     id="path-effect155406"
     is_visible="true"
     lpeversion="1"
     offset_points="0,11.8742"
     not_jump="false"
     sort_points="true"
     interpolator_type="CubicBezierJohan"
     interpolator_beta="0.2"
     start_linecap_type="zerowidth"
     linejoin_type="extrp_arc"
     miter_limit="4"
     scale_width="1"
     end_linecap_type="zerowidth" /><inkscape:path-effect
     effect="powerstroke"
     id="path-effect155402"
     is_visible="true"
     lpeversion="1"
     offset_points="0,11.8742"
     not_jump="false"
     sort_points="true"
     interpolator_type="CubicBezierJohan"
     interpolator_beta="0.2"
     start_linecap_type="zerowidth"
     linejoin_type="extrp_arc"
     miter_limit="4"
     scale_width="1"
     end_linecap_type="zerowidth" /><inkscape:path-effect
     effect="skeletal"
     id="path-effect155233"
     is_visible="true"
     lpeversion="1"
     pattern="M 0,11.874222 C 0,5.3196513 5.3196513,0 11.874222,0 c 6.55457,0 11.874221,5.3196513 11.874221,11.874222 0,6.55457 -5.319651,11.874221 -11.874221,11.874221 C 5.3196513,23.748443 0,18.428792 0,11.874222 Z"
     copytype="single_stretched"
     prop_scale="1"
     scale_y_rel="false"
     spacing="0"
     normal_offset="0"
     tang_offset="0"
     prop_units="false"
     vertical_pattern="false"
     hide_knot="false"
     fuse_tolerance="0" /><inkscape:path-effect
     effect="skeletal"
     id="path-effect155163"
     is_visible="true"
     lpeversion="1"
     pattern="M 0,11.874222 C 0,5.3196513 5.3196513,0 11.874222,0 c 6.55457,0 11.874221,5.3196513 11.874221,11.874222 0,6.55457 -5.319651,11.874221 -11.874221,11.874221 C 5.3196513,23.748443 0,18.428792 0,11.874222 Z"
     copytype="single_stretched"
     prop_scale="1"
     scale_y_rel="false"
     spacing="0"
     normal_offset="0"
     tang_offset="0"
     prop_units="false"
     vertical_pattern="false"
     hide_knot="false"
     fuse_tolerance="0" /><inkscape:path-effect
     effect="skeletal"
     id="path-effect154763"
     is_visible="true"
     lpeversion="1"
     pattern="M 0,11.874222 C 0,5.3196513 5.3196513,0 11.874222,0 c 6.55457,0 11.874221,5.3196513 11.874221,11.874222 0,6.55457 -5.319651,11.874221 -11.874221,11.874221 C 5.3196513,23.748443 0,18.428792 0,11.874222 Z"
     copytype="single_stretched"
     prop_scale="1"
     scale_y_rel="false"
     spacing="0"
     normal_offset="0"
     tang_offset="0"
     prop_units="false"
     vertical_pattern="false"
     hide_knot="false"
     fuse_tolerance="0" /><inkscape:path-effect
     effect="skeletal"
     id="path-effect144898"
     is_visible="true"
     lpeversion="1"
     pattern="M 0,11.874222 C 0,5.3196513 5.3196513,0 11.874222,0 c 6.55457,0 11.874221,5.3196513 11.874221,11.874222 0,6.55457 -5.319651,11.874221 -11.874221,11.874221 C 5.3196513,23.748443 0,18.428792 0,11.874222 Z"
     copytype="single_stretched"
     prop_scale="1"
     scale_y_rel="false"
     spacing="0"
     normal_offset="0"
     tang_offset="0"
     prop_units="false"
     vertical_pattern="false"
     hide_knot="false"
     fuse_tolerance="0" /><inkscape:path-effect
     effect="skeletal"
     id="path-effect37724"
     is_visible="true"
     lpeversion="1"
     pattern="M 0,11.874222 C 0,5.3196513 5.3196513,0 11.874222,0 c 6.55457,0 11.874221,5.3196513 11.874221,11.874222 0,6.55457 -5.319651,11.874221 -11.874221,11.874221 C 5.3196513,23.748443 0,18.428792 0,11.874222 Z"
     copytype="single_stretched"
     prop_scale="1"
     scale_y_rel="false"
     spacing="0"
     normal_offset="0"
     tang_offset="0"
     prop_units="false"
     vertical_pattern="false"
     hide_knot="false"
     fuse_tolerance="0" /><inkscape:path-effect
     effect="skeletal"
     id="path-effect37720"
     is_visible="true"
     lpeversion="1"
     pattern="M 0,11.874222 C 0,5.3196513 5.3196513,0 11.874222,0 c 6.55457,0 11.874221,5.3196513 11.874221,11.874222 0,6.55457 -5.319651,11.874221 -11.874221,11.874221 C 5.3196513,23.748443 0,18.428792 0,11.874222 Z"
     copytype="single_stretched"
     prop_scale="1"
     scale_y_rel="false"
     spacing="0"
     normal_offset="0"
     tang_offset="0"
     prop_units="false"
     vertical_pattern="false"
     hide_knot="false"
     fuse_tolerance="0" /><inkscape:path-effect
     effect="skeletal"
     id="path-effect37716"
     is_visible="true"
     lpeversion="1"
     pattern="M 0,11.874222 C 0,5.3196513 5.3196513,0 11.874222,0 c 6.55457,0 11.874221,5.3196513 11.874221,11.874222 0,6.55457 -5.319651,11.874221 -11.874221,11.874221 C 5.3196513,23.748443 0,18.428792 0,11.874222 Z"
     copytype="single_stretched"
     prop_scale="1"
     scale_y_rel="false"
     spacing="0"
     normal_offset="0"
     tang_offset="0"
     prop_units="false"
     vertical_pattern="false"
     hide_knot="false"
     fuse_tolerance="0" /><inkscape:path-effect
     effect="skeletal"
     id="path-effect37712"
     is_visible="true"
     lpeversion="1"
     pattern="M 0,11.874222 C 0,5.3196513 5.3196513,0 11.874222,0 c 6.55457,0 11.874221,5.3196513 11.874221,11.874222 0,6.55457 -5.319651,11.874221 -11.874221,11.874221 C 5.3196513,23.748443 0,18.428792 0,11.874222 Z"
     copytype="single_stretched"
     prop_scale="1"
     scale_y_rel="false"
     spacing="0"
     normal_offset="0"
     tang_offset="0"
     prop_units="false"
     vertical_pattern="false"
     hide_knot="false"
     fuse_tolerance="0" /><inkscape:path-effect
     effect="skeletal"
     id="path-effect37708"
     is_visible="true"
     lpeversion="1"
     pattern="M 0,11.874222 C 0,5.3196513 5.3196513,0 11.874222,0 c 6.55457,0 11.874221,5.3196513 11.874221,11.874222 0,6.55457 -5.319651,11.874221 -11.874221,11.874221 C 5.3196513,23.748443 0,18.428792 0,11.874222 Z"
     copytype="single_stretched"
     prop_scale="1"
     scale_y_rel="false"
     spacing="0"
     normal_offset="0"
     tang_offset="0"
     prop_units="false"
     vertical_pattern="false"
     hide_knot="false"
     fuse_tolerance="0" /><inkscape:path-effect
     effect="skeletal"
     id="path-effect37704"
     is_visible="true"
     lpeversion="1"
     pattern="M 0,11.874222 C 0,5.3196513 5.3196513,0 11.874222,0 c 6.55457,0 11.874221,5.3196513 11.874221,11.874222 0,6.55457 -5.319651,11.874221 -11.874221,11.874221 C 5.3196513,23.748443 0,18.428792 0,11.874222 Z"
     copytype="single_stretched"
     prop_scale="1"
     scale_y_rel="false"
     spacing="0"
     normal_offset="0"
     tang_offset="0"
     prop_units="false"
     vertical_pattern="false"
     hide_knot="false"
     fuse_tolerance="0" /><inkscape:path-effect
     effect="skeletal"
     id="path-effect37700"
     is_visible="true"
     lpeversion="1"
     pattern="M 0,11.874222 C 0,5.3196513 5.3196513,0 11.874222,0 c 6.55457,0 11.874221,5.3196513 11.874221,11.874222 0,6.55457 -5.319651,11.874221 -11.874221,11.874221 C 5.3196513,23.748443 0,18.428792 0,11.874222 Z"
     copytype="single_stretched"
     prop_scale="1"
     scale_y_rel="false"
     spacing="0"
     normal_offset="0"
     tang_offset="0"
     prop_units="false"
     vertical_pattern="false"
     hide_knot="false"
     fuse_tolerance="0" /><inkscape:path-effect
     effect="skeletal"
     id="path-effect37696"
     is_visible="true"
     lpeversion="1"
     pattern="M 0,11.874222 C 0,5.3196513 5.3196513,0 11.874222,0 c 6.55457,0 11.874221,5.3196513 11.874221,11.874222 0,6.55457 -5.319651,11.874221 -11.874221,11.874221 C 5.3196513,23.748443 0,18.428792 0,11.874222 Z"
     copytype="single_stretched"
     prop_scale="1"
     scale_y_rel="false"
     spacing="0"
     normal_offset="0"
     tang_offset="0"
     prop_units="false"
     vertical_pattern="false"
     hide_knot="false"
     fuse_tolerance="0" /></defs><sodipodi:namedview
   id="namedview25"
   pagecolor="#ffffff"
   bordercolor="#666666"
   borderopacity="1.0"
   inkscape:pageshadow="2"
   inkscape:pageopacity="0.0"
   inkscape:pagecheckerboard="0"
   showgrid="false"
   inkscape:zoom="1.4142136"
   inkscape:cx="361.68512"
   inkscape:cy="341.53258"
   inkscape:window-width="1440"
   inkscape:window-height="843"
   inkscape:window-x="2436"
   inkscape:window-y="733"
   inkscape:window-maximized="0"
   inkscape:current-layer="Layer_1" />
<g
   transform="translate(1 1)"
   id="g20">
	<g
   id="g6">
		<path
   style="fill:#666666"
   d="M301.933,276.227L301.933,276.227c-9.387,8.533-31.573,27.307-58.88,51.2H242.2V251.48    L301.933,276.227z"
   id="path2" />
		<path
   id="path4"
   style="fill:#666666;stroke-width:1.58898"
   transform="matrix(0.62933375,0,0,0.62933375,-1,-1)"
   d="m 427.79688,286.26953 c -22.37287,0 -44.74644,8.47495 -61.69532,25.42383 0,0 -2.71345,1.3561 -6.78125,6.7793 l 154.57617,63.73046 c 2.7124,-24.40676 -5.42268,-51.52619 -24.40625,-70.50976 -16.94887,-16.94888 -39.32049,-25.42383 -61.69335,-25.42383 z" />
	</g>
	<path
   style="fill:#AE938D;"
   d="M242.2,328.28c0,0-172.373,151.893-180.907,159.573c-13.653,13.653-34.987,13.653-48.64,0   C-1,474.2-1,452.867,12.653,439.213c7.68-7.68,98.133-110.933,159.573-180.907C173.08,259.16,242.2,328.28,242.2,328.28z"
   id="path8" />
	<g
   id="g14">
		<path
   id="path10"
   style="fill:#666666;stroke-width:1.58898"
   transform="matrix(0.62933375,0,0,0.62933375,-1,-1)"
   d="m 359.32031,319.83008 c -9.49099,9.49258 -25.76064,27.11863 -46.09961,51.52539 l 73.21875,29.83008 96.27149,40.67968 6.77929,-6.77929 c 13.55879,-14.91578 21.69386,-32.54183 24.40625,-51.52539 z" />
		<path
   style="fill:#666666"
   d="M196.12,231.853l46.08,18.773v75.947v0.853c-14.507-6.827-62.293-54.613-69.12-69.12    C181.613,249.773,189.293,240.386,196.12,231.853z"
   id="path12" />
	</g>
	
	
</g>
<path
   id="path22"
   style="fill:#51565f;stroke-width:1.58898;fill-opacity:1"
   transform="scale(0.62933375)"
   d="m 427.11719,278.8125 c -24.06792,0 -48.13634,9.15196 -66.44141,27.45703 C 356.60799,310.33733 36.610521,676.4383 17.626953,695.42188 6.7805636,707.62526 0,722.54132 0,738.8125 c 0,16.27118 5.423573,32.54264 17.626953,43.39062 12.203382,10.84641 27.119449,17.62696 43.390625,17.62696 16.271176,0 31.186879,-6.77941 43.388672,-18.98438 18.98357,-18.98198 385.08455,-338.98298 389.15234,-343.05078 16.27118,-14.91418 24.40675,-33.89736 27.11914,-54.23633 v -1.35547 c 2.71081,-27.11914 -6.78017,-55.59462 -27.11914,-75.93359 -18.30507,-18.30507 -42.37349,-27.45703 -66.4414,-27.45703 z m 0.002,13.56055 c 20.67782,0 41.35574,7.79519 56.94922,23.38867 14.91577,16.27117 23.05078,36.61025 23.05078,56.94922 L 370.16992,315.76172 c 15.59348,-15.59348 36.2714,-23.38867 56.94922,-23.38867 z m -66.44336,34.23828 145.08594,61.01562 c -2.7108,14.91419 -9.48998,29.82982 -21.69336,42.03321 L 480,433.72852 325.42383,368.64453 c 14.91577,-18.98357 27.11795,-32.54221 35.25195,-42.0332 z m -44.74414,52.8789 63.72852,27.11915 v 101.69531 l -93.5586,-94.91602 c 9.49258,-12.20338 20.33909,-24.40586 29.83008,-33.89844 z m 77.28906,31.1875 75.93164,31.18555 c -16.27117,14.91419 -43.38929,37.96685 -75.93164,66.44141 z M 276.60938,422.88086 376.94922,523.2207 C 265.76338,620.84776 107.1194,760.50756 94.916016,772.71094 c -18.983568,17.62657 -50.170298,17.62657 -67.796875,0 -8.135588,-9.49099 -13.558594,-21.69506 -13.558594,-33.89844 0,-13.55878 4.067604,-24.40549 13.558594,-33.89648 C 40.677924,692.71263 178.98229,534.06829 276.60938,422.88086 Z" />
<path
   style="fill:#51565f;stroke:none;stroke-width:0.629334px;stroke-linecap:butt;stroke-linejoin:miter;stroke-opacity:1;fill-opacity:1"
   d="m 332.44513,177.6924 c -0.8649,-0.7583 -0.56387,-3.30408 2.05016,-6.90367 2.48948,-3.42806 7.61038,-8.29947 15.842,-10.97311 5.78284,-1.7221 11.58047,-1.34282 13.54303,-2.99139 5.23655,-2.42812 11.00112,-5.4909 15.18411,-9.55694 -0.90717,0.84013 0.36298,-0.91015 2.78794,-3.09724 2.5841,-2.05042 4.57487,-3.19311 5.45548,-3.8147 1.37346,-1.55443 1.62636,-1.15815 0.0449,0.39918 0,-10e-6 -4e-5,2.5e-4 -4e-5,2.5e-4 -1.29683,8.27527 -1.75813,8.56895 -0.61704,0.49658 0,0 4e-5,-2.5e-4 4e-5,-2.5e-4 -0.77462,-1.09478 -0.32192,0.97514 0.79805,6.57761 3.73262,3.8576 4.96117,5.40574 4.17848,4.09553 -3.30771,-1.04758 -5.61566,-2.11783 -7.0075,-2.51089 -0.372,-0.15769 -2.79393,-0.26489 -7.14709,-1.66345 -2.75781,-0.91857 -4.4886,-1.73151 -5.27635,-1.77775 1.45167,0.38192 0.0188,0.24136 -4.05184,-0.97009 0,0 -5e-5,-2e-5 -5e-5,-2e-5 -7.15742,-5.22484 -7.52278,-5.87959 -1.5322,-1.1533 3.57265,1.12756 2.97991,1.26884 -1.35569,-0.18812 -4.34558,-2.31114 -5.34231,-3.3051 -3.36829,-2.04318 0.22175,0.23154 -1.78175,-0.53044 -5.6723,-3.06571 -3.10077,-2.30678 -3.15252,-2.98751 -1.04805,-1.2937 0,0 3.2e-4,5e-5 3.2e-4,5e-5 9.22196,1.44364 9.47849,1.90208 0.65411,0.64872 0,0 -3.1e-4,-5e-5 -3.1e-4,-5e-5 -3.09422,-1.42342 -4.36641,-2.13712 -3.83246,-2.08748 -0.54353,-0.43255 -0.94291,-0.7763 -1.20258,-1.0239 -0.74051,-0.67858 -1.44221,-1.40495 -2.10147,-2.17705 -0.55957,-0.49728 -1.44398,-1.77092 -2.55874,-3.87148 -0.53656,-0.54044 -0.97317,-2.41348 -1.25259,-5.6203 -0.0504,-3.84654 1.9375,-7.32916 5.9577,-10.38439 3.87536,-2.03373 7.67997,-3.42029 11.29986,-4.36046 3.74476,-0.97261 7.23119,-1.45184 10.30469,-1.69635 -2.69206,0.61712 -1.68884,-0.14267 3.32765,-0.87351 7.41729,-0.71549 12.28897,0.28461 14.83605,0.12233 7.12988,-0.38245 13.3899,-0.73224 19.42202,-1.61446 2.8035,-0.35504 6.37297,-1.2773 10.13052,-2.04567 -0.50261,0.2728 1.01733,-0.43947 4.5472,-1.25245 0.64148,-0.005 2.57239,-0.61898 5.71751,-1.111411 4.70901,-0.388593 4.40344,-0.04902 0.23825,0.324251 -0.90711,0.32213 -1.12614,0.38972 -0.6537,0.24409 0,0 1e-5,0 1e-5,0 0.22406,-0.0724 0.48298,-0.16626 0.77614,-0.27678 0.80506,-0.305174 1.57243,-0.610125 2.3054,-0.923599 0.79262,-0.379979 1.22856,-0.510379 1.27819,-0.511699 0.17085,-0.31764 -0.35558,0.31299 -1.63673,1.804378 -0.72669,0.21403 -1.24705,2.19775 -1.60324,5.93945 0,0 1.5e-4,5.8e-4 1.5e-4,5.8e-4 1.142,4.40385 2.77828,6.92804 4.94115,7.59791 -1.71707,-1.01799 -2.58359,-1.74509 -2.78524,-1.89988 0.072,-0.16985 -0.78462,-0.43433 -2.2847,-1.06105 -1.98971,-0.67456 -4.18452,-1.93067 -6.37042,-3.80262 -0.67408,-0.50618 -2.29209,-2.12402 -4.23196,-5.0326 -1.76313,-8.74651 -1.43655,-9.213407 0.0747,-0.93565 -0.63092,-1.14423 -0.75374,-1.696507 -0.65022,-1.627421 1.6248,-1.141012 4.28619,-1.552211 7.95657,-1.22124 0,0 4e-5,-9e-5 4e-5,-9e-5 0.27217,-0.668513 0.53924,-1.267939 0.82529,-1.804146 1.57699,-2.956032 3.21751,-4.348869 4.83485,-4.215125 l 0,0 c -2.2983,0.842048 -4.26277,2.684137 -6.02466,5.48402 l 0,10e-7 c 0,0 -8e-5,5e-6 -8e-5,5e-6 -0.3662,0.02342 -0.71613,0.06209 -1.08653,0.09873 -0.30492,0.03016 -0.61806,0.02034 -0.91259,0.02756 -2.55014,0.06252 -4.55077,0.561571 -6.08869,1.533385 -1.55878,-2.654896 -1.33733,-3.233493 -0.97863,-2.698604 0.87004,0.786849 0.96486,0.917716 0.41705,0.337617 -0.39477,-0.372993 -0.92005,-0.881109 -1.54467,-1.548877 -0.60114,-0.516941 -1.38673,-1.642015 -2.22166,-3.337169 0,0 -2e-5,-3.1e-5 -2e-5,-3.1e-5 -1.02889,-2.075143 -0.82837,-4.640162 0.53271,-7.459784 1.67138,-2.111067 3.05103,-3.125616 3.99098,-3.326907 1.41035,-0.599523 2.60559,-0.913909 3.56675,-1.069618 2.8365,-0.507356 5.38192,-0.587342 7.35937,-0.575564 2.79165,-0.0062 5.39885,0.178838 7.15283,0.368501 3.12241,0.210284 5.29123,1.126647 5.63184,1.807873 0.59633,1.192659 -0.92987,2.85099 -4.29073,4.666283 -1.89151,1.024127 -3.94364,1.879395 -6.62351,2.968388 -1.76597,0.71705 -3.92213,1.546654 -5.54764,2.434749 -0.58253,0.33174 -0.98871,0.584354 -1.08478,0.798491 -0.0677,0.347691 0.27444,-0.01165 1.32795,-1.105338 0.95637,-2.152575 1.18635,-3.846527 0.48858,-5.193814 0,0 -10e-6,-2e-5 -10e-6,-2e-5 -0.44267,-0.835204 -0.60308,-1.280161 -0.51013,-1.122426 0.0707,0.0027 0.30225,0.09956 0.68545,0.337628 -0.0272,-0.170331 0.62671,0.316147 1.9287,1.618882 1.95815,2.481383 2.67818,3.973488 2.57619,3.521378 -1.30324,1.323149 -3.09185,2.201581 -5.32664,2.550644 -0.2582,0.04033 -0.51187,0.08484 -0.78634,0.07635 -0.33352,-0.01032 -0.70753,-0.04177 -1.08482,-0.07729 0,0 -8e-5,-8e-6 -8e-5,-8e-6 l 0,0 c -1.87053,2.208592 -4.09752,3.494403 -6.58397,3.758043 l 0,0 c 1.55209,-0.0676 3.08698,-1.666081 4.69107,-4.832871 0.2909,-0.574293 0.6011,-1.188624 0.90625,-1.837108 0,0 4e-5,-8.7e-5 4e-5,-8.7e-5 3.76369,0.387155 6.49122,0.06771 8.18475,-0.988519 1.29787,1.54087 2.03559,2.651046 2.41378,3.186566 1.82113,8.752765 1.52966,9.113455 0.0747,0.848443 -0.59369,-0.682415 -0.16765,-0.833685 1.21566,0.419613 -0.20101,-0.174848 0.0345,-0.290868 0.62493,-0.134046 0.9282,0.157763 2.64102,0.55676 5.07119,1.566956 1.88971,0.886897 3.01916,1.560199 3.42332,1.667603 2.27192,0.727767 4.00371,3.352976 5.15447,7.880146 0,0 1.5e-4,5.9e-4 1.5e-4,5.9e-4 -0.34595,3.88595 -0.94285,6.00595 -1.75236,6.33881 -1.58859,1.93257 -2.56881,2.88442 -2.83762,2.88189 -1.42215,1.05477 -2.59716,1.77853 -3.44149,2.2514 -1.01064,0.59476 -2.02569,1.15437 -3.04243,1.68419 -0.363,0.19024 -0.76565,0.39378 -1.20996,0.60659 0,0 -10e-6,0 -10e-6,0 0.13085,2e-5 -0.42344,0.22935 -1.6888,0.65389 -5.20957,0.63564 -6.06698,0.54995 -2.43177,0.32425 -1.73178,0.41942 -3.23087,1.13921 -4.96265,1.55863 0.91164,-0.30541 -0.32584,0.49148 -3.47484,1.42155 -3.02892,0.93035 -6.87153,2.23133 -11.29802,3.20467 -7.27585,1.55731 -14.45669,2.39568 -21.7743,3.03462 -6.67706,0.49021 -11.30295,-0.41723 -13.37817,0.12233 2.15078,-0.35307 0.43614,0.48077 -5.17201,1.04797 -2.56897,0.46164 -4.86235,0.77345 -6.72583,1.17905 -1.79919,0.39161 -3.16493,0.86623 -4.01556,1.64368 3.80644,-2.92808 5.67481,-6.16044 5.62205,-9.75848 -0.28268,-2.86804 -0.5923,-4.41446 -0.98544,-4.64834 -0.68835,-1.18934 -0.93779,-1.66814 -0.84874,-1.40053 0.0355,0.0468 0.077,0.096 0.12154,0.14479 0.0343,0.0247 -0.0657,-0.0526 -0.29414,-0.23833 0.71036,0.18787 -0.38857,-0.3699 -3.27033,-1.72251 0,0 -2.9e-4,-4e-5 -2.9e-4,-4e-5 -8.217,-1.0572 -7.36116,-1.07069 2.43409,0.6487 0,0 3.4e-4,6e-5 3.4e-4,6e-5 4.73283,3.04067 5.98426,4.53831 5.18203,4.04638 -1.76536,-0.84646 -1.17908,-0.94138 1.4478,0.49435 3.85295,2.19801 4.39718,3.02582 1.97179,1.51686 -3.1578,-0.9548 -2.21705,-0.90602 2.49575,0.78838 6.68212,5.0446 6.69515,5.58176 0.24782,0.62672 0,0 -3e-5,-1e-5 -3e-5,-1e-5 -2.57759,-0.59283 -2.36993,-0.81408 0.64068,-0.0485 3.66882,1.04993 6.15373,2.21275 7.61037,2.84277 0.22588,0.28573 2.71552,0.56107 6.82019,2.00729 3.19661,1.25092 5.18927,2.39262 6.3731,2.84223 0.64693,-0.83899 3.53596,1.18884 7.97043,6.35917 1.74658,6.7724 1.68975,10.2636 0.50228,10.4165 0,1e-5 3e-5,-2.2e-4 3e-5,-2.2e-4 0.94035,-7.43249 0.96041,-6.60312 -0.61703,2.27657 0,0 -4e-5,2.7e-4 -4e-5,2.7e-4 -3.33136,4.97892 -6.32838,7.26954 -8.10642,7.72502 -2.29881,1.36478 -3.67256,1.83875 -3.94162,2.04125 0.60144,-0.78233 -0.24483,0.37789 -2.90914,2.59972 -7.62087,5.45568 -15.58726,8.33316 -22.32961,9.92002 -8.5116,1.86579 -13.23512,0.23108 -16.17067,0.28629 -5.65504,0.16586 -10.73872,2.11872 -14.00584,3.40919 -3.42859,1.35425 -5.62066,2.21832 -6.54942,1.40403 z"
   id="path155464"
   inkscape:path-effect="#path-effect155466"
   inkscape:original-d="m 332.44513,177.6924 c 4.88061,-5.56668 11.90102,-9.85222 19.22371,-11.345 5.09032,-1.0377 9.86785,0.0351 14.85685,-1.63884 6.48378,-2.17543 13.45443,-5.45805 18.75686,-9.73848 1.04485,-0.84346 1.79468,-2.01633 2.84854,-2.84848 2.18195,-1.72292 7.42279,-3.88805 8.77421,-6.5909 0.13267,-0.26535 -0.0938,-0.60856 0,-0.89001 0.58757,-1.7627 0.38949,-2.33874 -1.74809,-3.05127 -2.30143,-0.76715 -4.41911,-1.86282 -6.6903,-2.67656 -2.2566,-0.8085 -4.7455,-1.01212 -6.98364,-1.83537 -2.13545,-0.78548 -4.19905,-1.75773 -6.44336,-2.31026 -0.77392,-0.19054 -1.61074,-0.15379 -2.34627,-0.46079 -0.38719,-0.16161 -0.51318,-0.70556 -0.89001,-0.89001 -0.59479,-0.29114 -1.31576,-0.23043 -1.92572,-0.48825 -0.98527,-0.41645 -1.7133,-1.30165 -2.67004,-1.78002 -1.32806,-0.66403 -2.34195,-0.80555 -3.56005,-1.78003 -0.8672,-0.69376 -2.12563,-2.17533 -3.11504,-2.67004 -0.26535,-0.13267 -0.60856,0.0938 -0.89001,0 -0.44835,-0.14944 -3.58725,-3.22354 -2.66754,-3.7706 5.22039,-3.10513 10.11772,-3.68222 16.17297,-4.43977 1.48798,0.0273 2.81,-0.77036 4.24983,-0.96074 4.61467,-0.61013 9.46107,0.32865 14.10711,0 6.86897,-0.48587 13.78724,-1.07525 20.59816,-2.32454 3.50774,-0.64341 7.22319,-1.75102 10.71427,-2.62517 1.35394,-0.33903 2.64311,-1.06342 4.01102,-1.337 1.74329,-0.34866 3.58518,-1.04254 5.34008,-1.33502 0.43895,-0.0732 0.90713,0.12225 1.33501,0 0.58198,-0.16628 8.20586,-3.63113 7.11271,-4.21159 -1.05403,-0.55969 -2.03685,-1.25004 -3.10428,-1.78374 -2.533,-1.26647 -4.88298,-1.18811 -7.17562,-3.14829 -0.97635,-0.834765 -2.06349,-1.624251 -2.72381,-2.726102 -0.15285,-0.255056 0.15288,-0.637011 0,-0.892049 -3.492,-5.825314 -0.22047,0.557313 -1.78003,-1.78002 -0.63829,-0.956631 -1.0452,-2.233077 -1.77741,-3.109991 -0.49337,-0.590875 -3.59413,-2.358069 -2.70459,-3.824247 1.96264,-3.234895 17.67938,-4.138713 21.96023,-6.27914" /></svg>
